<?xml version="1.0" standalone="no"?>
<!DOCTYPE svg PUBLIC "-//W3C//DTD SVG 20010904//EN"
 "http://www.w3.org/TR/2001/REC-SVG-20010904/DTD/svg10.dtd">
<svg version="1.0" xmlns="http://www.w3.org/2000/svg"
 width="299.000000pt" height="299.000000pt" viewBox="0 0 299.000000 299.000000"
 preserveAspectRatio="xMidYMid meet">

<g transform="translate(0.000000,299.000000) scale(0.100000,-0.100000)"
fill="#000000" stroke="none">
<path d="M1235 2646 c-214 -68 -348 -265 -316 -464 22 -138 95 -228 256 -317
94 -51 135 -79 128 -85 -4 -5 -44 -18 -88 -30 -84 -23 -730 -205 -949 -268
-128 -37 -151 -51 -125 -77 31 -29 243 -138 269 -138 19 0 49 15 84 43 83 63
169 92 296 98 120 5 205 -11 278 -54 147 -86 87 -236 -120 -303 -40 -13 -55
-36 -37 -57 6 -7 48 -34 93 -58 l82 -45 100 28 c54 16 230 66 389 111 739 209
919 261 958 281 232 117 308 416 160 629 -62 88 -109 118 -638 400 -267 143
-441 237 -490 265 -90 52 -238 70 -330 41z m203 -60 c29 -8 126 -55 215 -104
89 -49 218 -120 287 -157 69 -37 130 -71 135 -75 6 -4 48 -27 95 -51 110 -55
113 -58 99 -75 -6 -8 -20 -14 -30 -14 -41 0 -167 -71 -210 -118 -38 -42 -81
-107 -81 -122 0 -3 -4 -11 -10 -17 -6 -7 -7 -13 -3 -13 4 0 3 -6 -3 -13 -19
-23 -25 -95 -12 -145 33 -122 112 -209 238 -264 194 -83 381 -10 451 177 30
79 27 132 -9 209 -87 184 -304 229 -448 93 -51 -49 -76 -103 -76 -169 -1 -47
4 -64 29 -100 17 -23 53 -56 79 -73 42 -25 59 -30 116 -30 56 0 73 4 109 28
54 36 81 81 81 135 0 93 -54 152 -138 152 -44 0 -102 23 -102 41 0 15 46 29
96 29 47 0 127 -34 155 -66 59 -66 74 -155 43 -246 -17 -53 -73 -113 -124
-135 -53 -22 -154 -19 -225 7 -86 32 -188 135 -203 205 -17 82 1 151 60 232
76 104 161 147 288 147 71 0 95 -5 144 -27 78 -36 119 -68 155 -121 38 -55 71
-153 71 -210 0 -75 -34 -166 -85 -225 -87 -102 -162 -141 -270 -141 -98 0
-134 12 -270 92 -66 38 -237 136 -380 217 -657 373 -653 370 -697 460 -29 60
-33 227 -6 277 56 103 135 169 246 205 69 22 120 23 190 5z m804 -771 c27 -14
64 -25 82 -25 56 0 106 -45 106 -96 0 -59 -65 -114 -136 -114 -92 0 -175 83
-160 161 6 34 40 99 52 99 3 0 28 -11 56 -25z m-465 -290 c208 -118 389 -221
403 -229 l25 -15 -30 -11 c-54 -21 -218 -71 -330 -100 -60 -16 -148 -40 -195
-54 -47 -13 -192 -55 -322 -92 -228 -64 -239 -66 -263 -50 -33 22 -32 30 8 53
92 55 146 131 147 205 1 147 -162 248 -400 248 -143 0 -263 -37 -372 -115 -48
-35 -49 -35 -81 -19 -45 23 -87 54 -87 63 0 10 153 60 310 100 63 17 189 52
280 79 91 27 219 64 285 82 99 26 232 64 242 69 2 1 173 -96 380 -214z"/>
<path d="M1103 1600 c-28 -11 -29 -16 -2 -30 21 -12 99 -4 99 9 0 9 -46 31
-63 30 -7 0 -22 -4 -34 -9z"/>
<path d="M1237 1528 c-22 -8 -26 -13 -16 -24 14 -17 47 -18 86 -3 l28 11 -25
13 c-29 17 -36 17 -73 3z"/>
<path d="M1358 1463 c-35 -5 -36 -16 -3 -31 32 -15 37 -15 72 -1 27 10 27 11
9 25 -20 14 -27 15 -78 7z"/>
<path d="M1490 1388 l-35 -10 28 -14 c22 -12 35 -12 68 -4 38 11 40 12 23 25
-22 17 -36 17 -84 3z"/>
<path d="M1630 1323 c-8 -2 -22 -7 -30 -10 -12 -4 -12 -7 4 -19 24 -17 45 -18
83 -3 27 10 27 11 9 25 -20 14 -39 16 -66 7z"/>
<path d="M1755 1253 c-60 -14 -18 -49 46 -38 43 7 49 19 20 35 -20 10 -32 11
-66 3z"/>
<path d="M325 721 c-30 -13 -54 -43 -61 -77 -8 -43 32 -88 97 -109 36 -12 49
-21 47 -33 -4 -23 -61 -28 -78 -8 -16 20 -30 20 -58 -2 l-23 -18 21 -27 c67
-84 232 -37 216 62 -7 45 -29 67 -87 86 -54 18 -67 31 -50 48 8 8 20 8 46 -2
26 -9 40 -9 55 -1 29 15 22 40 -19 67 -35 24 -71 28 -106 14z"/>
<path d="M1789 707 c-114 -61 -122 -202 -16 -281 43 -32 121 -29 175 7 48 31
54 58 16 76 -22 9 -29 8 -51 -9 -88 -69 -192 42 -114 121 35 34 60 36 111 8
36 -20 38 -21 64 -4 l27 18 -23 25 c-26 28 -93 61 -124 62 -11 0 -41 -10 -65
-23z"/>
<path d="M494 703 c3 -10 22 -80 42 -156 l37 -138 41 3 41 3 25 77 c14 42 28
79 31 83 3 3 14 -25 24 -62 26 -98 30 -103 74 -103 l38 0 37 138 c45 168 45
172 6 172 -34 0 -38 -7 -60 -100 -15 -60 -27 -81 -34 -59 -2 8 -14 47 -25 87
l-22 72 -39 0 c-38 0 -39 -1 -54 -55 -9 -30 -19 -68 -22 -85 -4 -16 -10 -30
-14 -30 -4 0 -17 38 -30 85 l-23 85 -39 0 c-33 0 -38 -3 -34 -17z"/>
<path d="M960 565 l0 -155 35 0 35 0 0 155 0 155 -35 0 -35 0 0 -155z"/>
<path d="M1097 713 c-4 -3 -7 -73 -7 -155 l0 -148 40 0 40 0 0 60 0 60 61 0
60 0 -3 33 c-3 32 -4 32 -60 35 -54 3 -58 5 -58 27 0 24 3 25 60 25 l60 0 0
35 0 35 -93 0 c-52 0 -97 -3 -100 -7z"/>
<path d="M1314 706 c-13 -33 0 -51 39 -54 l37 -3 0 -120 0 -119 40 0 40 0 0
120 0 120 40 0 c39 0 40 1 40 35 l0 35 -115 0 c-92 0 -117 -3 -121 -14z"/>
<path d="M1587 713 c-4 -3 -7 -73 -7 -155 l0 -148 40 0 40 0 0 155 0 155 -33
0 c-19 0 -37 -3 -40 -7z"/>
<path d="M2034 707 c-2 -7 -3 -76 -2 -152 l3 -140 38 -3 37 -3 0 39 c0 23 6
45 15 52 17 14 16 15 64 -47 30 -39 37 -43 77 -43 l45 0 -30 43 c-17 23 -45
61 -62 84 l-31 41 51 63 c28 35 51 67 51 71 0 5 -19 8 -42 8 -39 -1 -46 -5
-82 -50 -22 -28 -43 -50 -48 -50 -4 0 -8 23 -8 50 l0 50 -35 0 c-20 0 -38 -6
-41 -13z"/>
<path d="M2338 667 c-1 -29 -2 -99 0 -155 l3 -102 100 0 100 0 -3 33 c-3 32
-3 32 -65 35 -59 3 -63 4 -63 27 0 22 5 24 53 27 50 3 52 4 55 35 l3 32 -53 3
c-46 3 -53 6 -56 26 -3 21 0 22 57 22 l61 0 0 35 0 35 -94 0 -94 0 -4 -53z"/>
<path d="M2570 685 c0 -33 2 -35 35 -35 l35 0 1 -100 c1 -55 3 -104 4 -110 1
-5 3 -14 4 -20 0 -5 17 -10 36 -10 l35 0 0 119 0 120 38 3 c34 3 37 6 40 36
l3 32 -115 0 -116 0 0 -35z"/>
</g>
</svg>
